DBRep_DrawableShape

CASCADE Topology V3, (c) Open Cascade
Locations 0
Curve2ds 192
1 6.2831853071795862 1.5556349186104046 -1 -0 
1 2.3840000000000003 -13.600000000000001 0 1 
1 0 0 1 0 
1 2.484 0 0 1 
1 0 0 1 0 
1 4.7123889803846897 2.3839999999999999 1 0 
1 9 6.0999999999999996 0 1 
1 2.3840000000000003 0 0 -1 
1 2.484 0 0 -1 
1 20 0 0 1 
1 1.1840000000000011 0 0 1 
1 0 0 1 0 
1 4.2365067307243356 1.8000000000000007 1 0 
8 -1.1840000000000011 0
1 0 2.1000000000000014 -1 0 
8 -1.1840000000000011 0
1 0 -1 -1 -0 
1 0 0 0 1 
1 0 5.7999999999999998 1 0 
1 1.570796326795 0 0 1 
1 -1.9000000000000004 3 1 0 
1 0.099999999999999645 19.5 1 0 
1 -1.9000000000000004 -2.8999999999999986 0 1 
1 0 6.7999999999999998 1 0 
1 0.099999999999999645 13.600000000000001 0 1 
1 -1.9000000000000004 0 1 0 
1 -1.9000000000000004 -2.3999999999999999 1 0 
1 0.099999999999999645 16.5 1 0 
1 2.8999999999999986 -6.0499999999999989 0 1 
1 -1.9000000000000004 10.449999999999999 0 -1 
1 0 0 1 0 
1 0 0 0 1 
1 0.099999999999999645 13.600000000000001 0 1 
1 10.995574287565001 0 -1 0 
2 5.8999999999999986 0.5 0 -1 -1 -0 0.5
1 6.3999999999999986 0 0 1 
1 0 0 0 -1 
1 0.099999999999999645 0 0 -1 
1 -1.570796326795 0 1 0 
2 5.8999999999999986 6.2999999999999998 0 -1 1 0 0.5
1 0 0 0 1 
1 0 -6.2999999999999998 1 0 
1 0.099999999999999645 -6.2999999999999998 1 0 
1 0 1.1999999999999993 1 0 
2 0.80000000000000071 5.2999999999999998 1 0 -0 1 0.5
1 0 0 0 1 
1 0 0 1 0 
1 0.84106867056790979 0.61599999999999966 1 0 
8 -5.7999999999999998 -0.5
1 1.1999999999999993 -0.5 0 1 
8 -5.7999999999999998 -0.5
1 1.8000000000000007 -0.5 0 -1 
1 0 1.1999999999999993 1 0 
2 2.3000000000000007 5.2999999999999998 -1 0 -0 -1 0.5
1 0 0 0 1 
1 0 5.7999999999999998 1 0 
1 0 0 0 -1 
1 28.399999999999999 0 0 1 
1 0 0 0 1 
1 0 1.8000000000000003 1 0 
1 0 0 0 -1 
1 0 0 0 1 
8 -5.7999999999999998 -0.5
1 1.1999999999999993 -0.5 0 1 
8 -5.7999999999999998 -0.5
1 1.3000000000000007 -0.5 0 -1 
1 8.5837092902014493 0.61599999999999966 -1 -0 
1 0.59999999999999964 0 0 1 
1 0 1.8000000000000003 1 0 
1 0.59999999999999964 0 0 -1 
1 0 0 0 1 
1 0.59999999999999964 0 0 -1 
1 28.399999999999999 0 0 1 
1 0.59999999999999964 0 0 1 
1 0 0 1 0 
1 0 0 1 0 
1 0 28.399999999999999 1 0 
8 -1.1840000000000011 0
1 0 1 -1 0 
8 -1.1840000000000011 0
1 0 -1 -1 -0 
1 0 1.8000000000000007 1 0 
2 0 0 1 0 -0 1 2.7000000000000002
1 1.1840000000000011 0 0 1 
1 0 0 1 0 
1 39 6.0999999999999996 0 1 
1 2.3840000000000003 0 0 -1 
1 2.484 0 0 -1 
1 0 0 0 1 
1 0 2.3839999999999999 1 0 
1 2.3840000000000003 0 0 1 
1 0 0 1 0 
1 2.484 0 0 1 
1 0 0 1 0 
1 6.2831853071795862 1.5556349186104046 -1 -0 
1 6.2831853071795862 -0 0 1 
1 0 -0 0 1 
1 0 0 1 0 
2 0 0 1 0 -0 1 1.1499999999999999
1 0 2.1840000000000011 1 0 
1 6.2831853071795862 -0 0 1 
1 0 -0 0 1 
2 0 0 1 0 -0 1 1.1499999999999999
1 0 1.484 1 0 
2 0 0 1 0 -0 1 1.1500000000000004
8 -4.4000000000000004 1.0000000000000002
1 0.58399999999999963 -1.7 0 1 
8 -4.4000000000000004 1.0000000000000002
1 1.8000000000000007 -1.7 0 -1 
1 0 0 1 0 
2 0 0 1 0 -0 1 2.7000000000000002
1 0.58399999999999963 4.0999999999999996 -1 0 
1 0.58399999999999963 -2.3999999999999999 -1 0 
1 2.5839999999999996 3.5 -1 0 
1 -5.4500000000000002 3.5 -1 0 
1 -7.3500000000000005 4.4000000000000004 -1 0 
1 -5.3500000000000005 3.5 -1 0 
1 3.5 -6.0499999999999989 0 1 
1 -1.9000000000000004 10.449999999999999 0 -1 
1 0 0 0 1 
1 0 0 0 -1 
1 0.099999999999999645 0 0 -1 
1 -4.7123889803849996 0 1 0 
2 0.5 0.5 0 -1 1 0 0.5
1 0 0 1 0 
1 0 0 0 1 
1 0.099999999999999645 0 0 1 
1 -1.9000000000000004 0.59999999999999964 0 1 
1 0 6.7999999999999998 1 0 
1 0.099999999999999645 0 0 1 
1 7.8539816339749997 0 -1 0 
2 0.5 6.2999999999999998 0 -1 -1 -0 0.5
1 1.570796326795 0 0 1 
1 0 0.5 1 0 
1 0.099999999999999645 0.5 1 0 
1 0 0 0 1 
1 0 -0.5 1 0 
1 0.099999999999999645 -0.5 1 0 
1 0 0 0 1 
1 0 0 1 0 
8 0.59999999999999964 1.7840000000000007
1 0.59999999999999964 -1 1 0 
8 0.59999999999999964 1.7840000000000007
1 -0.59999999999999964 1.8000000000000007 1 0 
8 0.49760000000000026 1.8000006000000006
1 5.1882712300451068 0 0 1 
8 0.49760000000000026 1.8000006000000006
1 -0.61599999999999966 1.2369316876852992 1 0 
1 0 0.61599999999999966 1 0 
2 0 2.3999999999999999 1 0 -0 1 2.7000000000000002
1 4.7123889803849996 0 -0 1 
1 -1.9000000000000004 1.0999999999999996 1 0 
1 0.099999999999999645 0.5 1 0 
1 6.2831853071800001 0 -0 1 
1 0 -6.2999999999999998 1 0 
1 0.099999999999999645 -6.2999999999999998 1 0 
8 -5.999999999062311e-07 1.8000006000000006
1 0.58399999999999963 -1.3875388202501893 1 0 
8 -5.999999999062311e-07 1.8000006000000006
1 5.4421166366116562 0 0 1 
8 -5.999999999062311e-07 1.8000006000000006
1 0.58399999999999963 -5.4124611797498101 1 0 
8 -5.999999999062311e-07 1.8000006000000006
1 0.84106867056793 0 0 1 
8 0.49760000000000026 1.8000006000000006
1 2.0466785764553137 0 0 1 
8 0.49760000000000026 1.8000006000000006
1 -0.61599999999999966 26.163068312314699 1 0 
1 0 0 1 0 
1 0 0 1 0 
8 0.49760000000000026 1.8000006000000006
1 1.0949140771344799 0 0 1 
8 0.49760000000000026 1.8000006000000006
1 -0.61599999999999966 2.2369316876852992 1 0 
8 0.61599999999999966 1.8000000000000007
1 7.3780993843140656 0 0 1 
8 0.49760000000000026 1.8000006000000006
1 4.2365067307242725 0 0 1 
8 0.49760000000000026 1.8000006000000006
1 -0.61599999999999966 1.8630683123147023 1 0 
8 0.61599999999999966 1.8000000000000007
1 4.2365067307242725 0 0 1 
1 0 0.61599999999999966 1 0 
2 3.1000000000000014 2.3999999999999999 1 0 -0 1 2.7000000000000002
8 3.9826613241577231 4.2365067307242699
1 0 0.61599999999999966 1 0 
8 -5.999999999062311e-07 1.8000006000000006
1 0.58399999999999963 -1.3875388202501893 1 0 
8 -5.999999999062311e-07 1.8000006000000006
1 3.9826613241577231 0 0 1 
8 0 0.61599999999999966
1 3.9826613241577231 0 0 1 
1 8.5837092902014493 0 -1 -0 
2 0 0 -0.66666666666666685 0.74535599249992979 0.74535599249992979 0.66666666666666685 2.7000000000000006
8 -5.999999999062311e-07 1.8000006000000006
1 0.58399999999999963 -5.4124611797498101 1 0 
8 -5.999999999062311e-07 1.8000006000000006
1 2.3005239830218631 0 0 1 
8 0 0.61599999999999966
1 8.5837092902014493 0 0 1 
8 -4.4000000000000004 1.0000000000000002
1 0.58399999999999963 -1.7 0 1 
8 -4.4000000000000004 1.0000000000000002
1 -1.8000000000000007 -1.7 0 -1 
2 0 0 1 0 -0 1 1.1499999999999999
1 0 1.484 1 0 
2 0 0 1 0 -0 1 1.1500000000000004
1 0 0 1 0 
2 0 0 1 0 -0 1 1.1499999999999999
1 0 2.1840000000000011 1 0 
1 6.2831853071795862 -0 0 1 
1 0 -0 0 1 
1 0 0 0 1 
1 0 0 1 0 
8 0.59999999999999964 1.7840000000000007
1 0.59999999999999964 -1 1 0 
8 0.59999999999999964 1.7840000000000007
1 -0.59999999999999964 1.3000000000000007 1 0 
1 6.2831853071800001 0 -0 1 
1 0 -0.5 1 0 
1 0.099999999999999645 -0.5 1 0 
1 4.7123889803849996 0 -0 1 
1 0 5.8999999999999986 1 0 
1 0.099999999999999645 19.5 1 0 
1 -7.3500000000000005 4.4000000000000004 -1 0 
1 -5.4500000000000002 2.8999999999999986 -1 0 
1 -5.3500000000000005 16.5 -1 0 
1 6.2831853071795862 -0 0 1 
1 0 -0 0 1 
Curves 92
2 -13.199999999999999 1.0273318862511468e-16 13.284000000000001 0 0 -1 1 -2.9058855477396603e-16 0 -2.9058855477396603e-16 -1 -0 2.25
8 0 6.7999999999999998
1 -18.5 3.3999999999999999 13.284000000000001 0 -1 0 
1 -35 -3.3999999999999999 13.284000000000001 1 0 -0 
8 0 1.5707963267948966
2 -15.5 -2.8999999999999999 13.284000000000001 0 0 1 0 -1 0 1 0 -0 0.5
1 -15 -3.3999999999999999 13.284000000000001 -0 1 0 
1 -16.300000000000001 -2.3999999999999999 13.284000000000001 1 0 -0 
8 0 3.1415926535896772
2 -13.199999999999999 0 13.284000000000001 0 0 1 -0.45812284729079555 -0.88888888888891759 0 0.88888888888891759 -0.45812284729079555 0 2.7000000000000002
8 0 2.2369316876854413
1 -11.963068312314558 2.3999999999999631 13.284000000000001 -1 1.6477662067407036e-14 0 
8 0 1
1 -14.199999999999999 2.3999999999999999 13.284000000000001 0 1 0 
8 0 4.3000000000000007
1 -14.199999999999999 3.3999999999999999 13.284000000000001 -1 0 0 
1 -14.199999999999999 3.3999999999999999 12.1 -0 0 -1 
1 -16.300000000000001 3.3999999999999999 12.1 1 0 -0 
1 -15.5 3.3999999999999999 10.9 0 0 1 
1 -21.399999999999999 3.3999999999999999 10.9 1 0 0 
1 -18.5 3.3999999999999999 10.9 0 0 1 
1 -18.5 -9.4499999999999993 10.9 0 1 0 
1 -21.399999999999999 -3.3999999999999999 10.9 1 0 0 
2 -15.5 -2.8999999999999999 10.9 -0 -0 -1 0 -1 0 -1 0 0 0.5
1 -15 -3.3999999999999999 10.9 0 1 0 
2 -15.5 2.8999999999999999 10.9 0 0 1 0 -1 0 1 0 -0 0.5
1 -15 2.8999999999999999 10.9 0 0 1 
2 -15.5 2.8999999999999999 12.1 0 0 1 1 0 -0 -0 1 0 0.5
1 -14.199999999999999 2.3999999999999999 12.1 1 0 -0 
8 0 1.2056099058873859
2 13.199999999999999 0 12.1 0 0 1 0.66666666666666685 0.74535599249992979 -0 -0.74535599249992979 0.66666666666666685 0 2.7000000000000002
1 15 -2.8999999999999999 12.1 0 -1 0 
2 15.5 2.8999999999999999 12.1 0 0 1 -1 -0 0 0 -1 0 0.5
1 13.199999999999999 3.3999999999999999 12.1 1 0 -0 
1 14.199999999999999 2.3999999999999999 12.1 -0 1 0 
1 -14.199999999999999 4.2000000000000002 12.1 1 0 -0 
1 -14.199999999999999 2.3999999999999999 12.1 -0 1 0 
1 -15 -2.8999999999999999 12.1 0 -1 0 
8 0 1.2056099058873793
2 -13.199999999999999 0 12.1 0 0 -1 -0.66666666666666685 0.74535599249992979 0 0.74535599249992979 0.66666666666666685 0 2.7000000000000002
8 0 1.7840000000000007
1 14.199999999999999 4.2000000000000002 13.884 0 0 -1 
8 0 1.7840000000000007
1 -14.199999999999999 4.2000000000000002 13.884 0 0 -1 
1 -14.199999999999999 4.2000000000000002 13.884 1 0 -0 
1 -14.199999999999999 2.3999999999999999 13.884 -0 1 0 
1 14.199999999999999 2.3999999999999999 13.884 -0 1 0 
1 -14.199999999999999 2.3999999999999999 13.884 1 0 -0 
1 14.199999999999999 2.3999999999999999 13.284000000000001 0 0 1 
8 0 1
1 14.199999999999999 3.3999999999999999 13.284000000000001 0 -1 0 
1 14.199999999999999 3.3999999999999999 12.1 -0 0 -1 
2 13.199999999999999 0 13.284000000000001 0 0 1 1 0 -0 -0 1 0 2.7000000000000002
1 13.199999999999999 -2.3999999999999999 13.284000000000001 1 0 -0 
1 15 -3.3999999999999999 13.284000000000001 -0 1 0 
8 0 1.5707963267948966
2 15.5 -2.8999999999999999 13.284000000000001 0 0 1 -1 0 0 0 -1 0 0.5
1 15 -3.3999999999999999 13.284000000000001 1 0 -0 
8 0 6.7999999999999998
1 18.5 -3.3999999999999999 13.284000000000001 0 1 0 
8 0 4.3000000000000007
1 18.5 3.3999999999999999 13.284000000000001 -1 0 0 
8 0 2.2369316876852707
1 11.963068312314729 2.4000000000000075 13.284000000000001 1 -3.374942833083626e-15 0 
2 13.199999999999806 1.585582735292255e-14 13.284000000000001 0 0 -1 1 -7.2919637389055308e-15 0 -7.2919637389055308e-15 -1 -0 2.2500000000001936
1 14.35 -2.8166876380389116e-16 12.184000000000001 0.70710678118654746 -1.7319121124709863e-16 0.70710678118654757 
2 13.199999999999999 0 12.184000000000001 0 0 1 1 0 -0 -0 1 0 1.1499999999999999
1 14.35 -2.8166876380389116e-16 10 0 0 1 
2 13.199999999999999 0 11.484 0 0 1 1 0 -0 -0 1 0 1.1499999999999999
1 15 -1.7 11.484 0 -1 0 
2 13.199999999999999 0 11.484 0 0 1 1 0 -0 -0 1 0 2.7000000000000002
1 18.5 3.3999999999999999 13.384 0 0 -1 
1 18.5 -3.3999999999999999 5.4500000000000002 0 0 -1 
1 18.5 -9.4499999999999993 10.9 0 1 0 
1 15 -3.3999999999999999 10.9 0 1 0 
2 15.5 -2.8999999999999999 10.9 0 0 1 0 -1 0 1 0 -0 0.5
1 15 -3.3999999999999999 10.9 1 0 0 
1 15 3.3999999999999999 10.9 1 0 0 
2 15.5 2.8999999999999999 10.9 -0 -0 -1 0 -1 0 -1 0 0 0.5
1 15.5 -3.3999999999999999 10.9 0 0 1 
1 15 -2.8999999999999999 10.9 0 0 1 
1 13.199999999999999 -2.3999999999999999 12.1 1 0 -0 
1 15 -2.3999999999999999 11.5 0 -0 1 
1 14.436931687685298 -2.3999999999999999 11.484 0 0 1 
2 13.199999999999999 0 12.1 0 0 1 1 0 -0 -0 1 0 2.7000000000000002
1 15.5 3.3999999999999999 10.9 0 0 1 
1 15 2.8999999999999999 10.9 0 0 1 
1 15 -2.0124611797498106 11.484 0 0 1 
1 15 2.0124611797498106 11.484 0 0 1 
1 11.9630683123147 2.3999999999999999 11.484 0 0 1 
1 -14.199999999999999 2.3999999999999999 13.284000000000001 0 0 1 
1 -11.9630683123147 2.3999999999999999 11.484 0 0 1 
1 -14.436931687685298 -2.3999999999999999 11.484 0 0 1 
2 -13.199999999999999 0 12.1 0 0 1 1 0 -0 -0 1 0 2.7000000000000002
1 -15 -2.0124611797498106 11.484 0 0 1 
8 0 4.6010479660437262
2 -13.199999999999999 0 11.484 0 0 -1 -0.66666666666666685 0.74535599249992979 0 0.74535599249992979 0.66666666666666685 0 2.7000000000000002
1 -15 2.0124611797498106 11.484 0 0 1 
1 -15 -1.7 11.484 0 -1 0 
2 -13.199999999999999 0 11.484 0 0 1 1 0 -0 -0 1 0 1.1499999999999999
2 -13.199999999999999 0 12.184000000000001 0 0 1 1 0 -0 -0 1 0 1.1499999999999999
1 -12.049999999999999 -2.8166876380389155e-16 10 0 0 1 
1 -16.300000000000001 -2.3999999999999999 12.1 1 0 -0 
1 -15 -2.3999999999999999 11.5 0 -0 1 
1 -15 -2.8999999999999999 10.9 0 0 1 
1 -15.5 -3.3999999999999999 10.9 0 0 1 
1 -18.5 -3.3999999999999999 5.4500000000000002 0 0 -1 
1 -12.049999999999999 -2.8166876380389155e-16 12.184000000000001 0.70710678118654746 -1.7319121124709863e-16 0.70710678118654757 
Polygon3D 0
PolygonOnTriangulations 0
Surfaces 66
1 -35 -3.3999999999999999 13.284000000000001 0 0 1 1 0 -0 -0 1 0 
3 -13.199999999999999 0 12.184000000000001 0 0 1 1 0 -0 -0 1 0 1.1499999999999999
0.78539816339744828
1 -21.399999999999999 -3.3999999999999999 10.9 0 1 0 0 -0 1 1 0 -0 
1 -35 -3.3999999999999999 13.284000000000001 0 0 1 1 0 -0 -0 1 0 
1 -35 -3.3999999999999999 10.800000000000001 -0 1 0 0 0 1 1 0 -0 
1 -35 -3.3999999999999999 13.284000000000001 0 0 1 1 0 -0 -0 1 0 
2 -15.5 -2.8999999999999999 10.9 0 0 1 1 0 -0 -0 1 0 0.5
1 -24 -9.5 13.284000000000001 0 0 1 1 0 -0 -0 1 0 
1 -15 -3.3999999999999999 10.9 1 0 0 0 0 1 0 -1 0 
1 -15 -3.3999999999999999 10.800000000000001 1 0 -0 0 0 1 0 -1 0 
1 -16.300000000000001 -2.3999999999999999 12.1 -0 1 0 0 0 1 1 0 -0 
1 -16.300000000000001 -2.3999999999999999 13.284000000000001 0 0 1 1 0 -0 -0 1 0 
10 3.1415926535897931 9.4247779607693793 -2e+100 2e+100
2 -13.199999999999999 0 11.484 0 0 1 1 0 -0 -0 1 0 2.7000000000000002
1 -18.5 3.3999999999999999 12.800000000000001 -0 1 0 0 0 1 1 0 -0 
1 -16.300000000000001 3.3999999999999999 12.1 -0 1 0 0 0 1 1 0 -0 
1 -14.199999999999999 2.3999999999999999 12.1 1 0 -0 0 0 1 0 -1 0 
1 -16.300000000000001 -2.3999999999999999 12.1 0 0 1 1 0 -0 -0 1 0 
2 -15.5 2.8999999999999999 10.9 0 0 1 1 0 -0 -0 1 0 0.5
1 -18.5 3.3999999999999999 12.800000000000001 -0 1 0 0 0 1 1 0 -0 
1 -35 3.3999999999999999 10.800000000000001 -0 1 0 0 0 1 1 0 -0 
1 -21.399999999999999 -3.3999999999999999 10.9 0 0 1 1 0 -0 -0 1 0 
1 -18.5 1 12.800000000000001 1 0 -0 0 0 1 0 -1 0 
1 -14.199999999999999 2.3999999999999999 12.1 0 0 1 1 0 -0 -0 1 0 
1 -14.199999999999999 2.3999999999999999 12.1 -0 1 0 0 0 1 1 0 -0 
1 -14.199999999999999 2.3999999999999999 12.1 0 0 1 1 0 -0 -0 1 0 
2 13.199999999999999 0 11.484 0 0 1 1 0 -0 -0 1 0 2.7000000000000002
1 15 -3.3999999999999999 10.9 1 0 0 0 0 1 0 -1 0 
1 13.199999999999999 -2.3999999999999999 12.1 0 0 1 1 0 -0 -0 1 0 
2 15.5 2.8999999999999999 10.9 0 0 1 -1 -0 0 0 -1 0 0.5
1 13.199999999999999 3.3999999999999999 12.1 -0 1 0 0 0 1 1 0 -0 
1 14.199999999999999 2.3999999999999999 12.1 1 0 -0 0 0 1 0 -1 0 
1 -14.199999999999999 4.2000000000000002 12.1 -0 1 0 0 0 1 1 0 -0 
1 -14.199999999999999 4.2000000000000002 13.284000000000001 -0 1 0 0 0 1 1 0 -0 
1 -14.199999999999999 4.2000000000000002 13.284000000000001 -0 1 0 0 0 1 1 0 -0 
1 -14.199999999999999 2.3999999999999999 13.884 0 0 1 1 0 -0 -0 1 0 
1 -14.199999999999999 2.3999999999999999 13.284000000000001 1 0 -0 0 0 1 0 -1 0 
1 14.199999999999999 2.3999999999999999 13.284000000000001 1 0 -0 0 0 1 0 -1 0 
1 -14.199999999999999 2.3999999999999999 13.284000000000001 -0 1 0 0 0 1 1 0 -0 
1 14.199999999999999 2.3999999999999999 13.284000000000001 1 0 -0 0 0 1 0 -1 0 
1 13.199999999999999 0 13.284000000000001 0 0 1 1 0 -0 -0 1 0 
1 13.199999999999999 0 13.284000000000001 0 0 1 1 0 -0 -0 1 0 
1 13.199999999999999 -2.3999999999999999 12.1 -0 1 0 0 0 1 1 0 -0 
1 13.199999999999999 -2.3999999999999999 13.284000000000001 0 0 1 1 0 -0 -0 1 0 
1 15 -3.3999999999999999 10.800000000000001 1 0 -0 0 0 1 0 -1 0 
1 15 -3.3999999999999999 13.284000000000001 0 0 1 1 0 -0 -0 1 0 
2 15.5 -2.8999999999999999 10.9 0 0 1 -1 -0 0 0 -1 0 0.5
1 15 -3.3999999999999999 10.9 0 1 0 0 -0 1 1 0 -0 
1 15 -3.3999999999999999 13.284000000000001 0 0 1 1 0 -0 -0 1 0 
1 15 -3.3999999999999999 10.800000000000001 -0 1 0 0 0 1 1 0 -0 
3 13.199999999999999 0 12.184000000000001 0 0 1 1 0 -0 -0 1 0 1.1499999999999999
0.78539816339744828
1 13.199999999999999 0 12.184000000000001 0 0 1 1 0 -0 -0 1 0 
2 13.199999999999999 0 10 0 0 1 1 0 -0 -0 1 0 1.1499999999999999
1 13.199999999999999 0 11.484 0 0 1 1 0 -0 -0 1 0 
1 13.199999999999999 0 11.484 0 0 1 1 0 -0 -0 1 0 
1 18.5 1 12.800000000000001 1 0 -0 0 0 1 0 -1 0 
1 14.4 3.3999999999999999 12.800000000000001 -0 1 0 0 0 1 1 0 -0 
1 15 3.3999999999999999 10.800000000000001 -0 1 0 0 0 1 1 0 -0 
1 15 -3.3999999999999999 10.9 0 0 1 1 0 -0 -0 1 0 
1 13.199999999999999 3.3999999999999999 12.1 -0 1 0 0 0 1 1 0 -0 
1 -14.199999999999999 2.3999999999999999 13.284000000000001 1 0 -0 0 0 1 0 -1 0 
1 -14.199999999999999 2.3999999999999999 13.284000000000001 -0 1 0 0 0 1 1 0 -0 
2 -13.199999999999999 0 11.484 0 0 1 1 0 -0 -0 1 0 2.7000000000000002
1 -13.199999999999999 0 11.484 0 0 1 1 0 -0 -0 1 0 
2 -13.199999999999999 0 10 0 0 1 1 0 -0 -0 1 0 1.1499999999999999
1 -13.199999999999999 0 11.484 0 0 1 1 0 -0 -0 1 0 
1 -13.199999999999999 0 12.184000000000001 0 0 1 1 0 -0 -0 1 0 
Triangulations 0

TShapes 231
Ve
1e-07
-10.95 -5.51091059616309e-16 13.284
0 0

0101101
*
Ed
 1e-07 1 1 0
1  1 0 0 6.28318530717959
2  1 2 0 0 6.28318530717959
0

0101000
+231 0 -231 0 *
Wi

0101100
+230 0 *
Ve
1.50000000444089e-07
-18.5 3.4 13.284
0 0

0101101
*
Ve
1e-07
-18.5 -3.4 13.284
0 0

0101101
*
Ed
 1e-07 1 1 0
1  2 0 0 6.8
0

0101000
+228 0 -227 0 *
Ve
1.0000000116861e-07
-15.5 -3.4 13.284
0 0

0101101
*
Ed
 1e-07 1 1 0
1  3 0 16.5 19.5
4 C0 3 0 4 0
2  2 3 0 16.5 19.5
2  3 4 0 16.5 19.5
2  4 5 0 16.5 19.5
2  5 6 0 16.5 19.5
0

0101000
+227 0 -225 0 *
Ve
1e-07
-15 -2.9 13.284
0 0

0101101
*
Ed
 1e-07 1 1 0
1  4 0 0 1.5707963267949
2  6 7 0 0 1.5707963267949
0

0101000
+225 0 -223 0 *
Ve
1.5e-07
-15 -2.4 13.284
0 0

0101101
*
Ed
 1e-07 1 1 0
1  5 0 0.5 1
4 C0 8 0 9 0
2  7 8 0 0.5 1
2  8 9 0 0.5 1
2  9 10 0 0.5 1
2  10 6 0 0.5 1
0

0101000
+223 0 -221 0 *
Ve
1.00000174275454e-07
-14.4369316876851 -2.40000000000004 13.284
0 0

0101101
*
Ed
 1e-07 1 1 0
1  6 0 1.3 1.86306831231487
2  11 11 0 1.3 1.86306831231487
2  12 12 0 1.3 1.86306831231487
0

0101000
+221 0 -219 0 *
Ve
1.00000146810949e-07
-11.9630683123146 2.39999999999996 13.284
0 0

0101101
*
Ed
 1e-07 1 1 0
1  7 0 0 3.14159265358968
2  13 13 0 0 3.14159265358968
0

0101000
+219 0 -217 0 *
Ve
1e-07
-14.2 2.4 13.284
0 0

0101101
*
Ed
 1e-07 1 1 0
1  8 0 0 2.23693168768544
0

0101000
+217 0 -215 0 *
Ve
1.5e-07
-14.2 3.4 13.284
0 0

0101101
*
Ed
 1e-07 1 1 0
1  9 0 0 1
0

0101000
+215 0 -213 0 *
Ed
 1e-07 1 1 0
1  10 0 0 4.3
0

0101000
+213 0 -228 0 *
Wi

0101100
+226 0 +224 0 +222 0 +220 0 +218 0 +216 0 +214 0 +212 0 +211 0 *
Fa
0  0 1 0

0101000
+229 0 +210 0 *
Ve
1.5e-07
-14.2 3.4 12.1
0 0

0101101
*
Ed
 1.5e-07 1 1 0
1  11 0 -1.184 0
2  14 15 0 -1.184 0
2  15 16 0 -1.184 0
0

0101000
+213 0 -208 0 *
Ve
1.00000051514348e-07
-15.5 3.4 12.1
0 0

0101101
*
Ed
 1e-07 1 1 0
1  12 0 0.800000000000001 2.1
2  16 15 0 0.800000000000001 2.1
2  17 17 0 0.800000000000001 2.1
0

0101000
+206 0 -208 0 *
Ve
1e-07
-15.5 3.4 10.9
0 0

0101101
*
Ed
 1e-07 1 1 0
1  13 0 0 1.2
2  18 18 0 0 1.2
4 G1 18 0 19 0
2  19 19 0 0 1.2
2  20 20 0 0 1.2
0

0101000
+204 0 -206 0 *
Ve
1e-07
-18.5 3.4 10.9
0 0

0101101
*
Ed
 1e-07 1 1 0
1  14 0 2.9 5.9
4 C0 21 0 19 0
2  21 19 0 2.9 5.9
2  22 21 0 2.9 5.9
2  23 20 0 2.9 5.9
0

0101000
+202 0 -204 0 *
Ed
 1e-07 1 1 0
1  15 0 0 2.384
4 C0 22 0 19 0
2  24 19 0 0 2.384
2  25 22 0 0 2.384
2  26 20 0 0 2.384
0

0101000
+202 0 -228 0 *
Wi

0101100
-211 0 +207 0 -205 0 -203 0 -201 0 +200 0 *
Fa
0  0 14 0

0101000
+199 0 *
Ve
1e-07
-18.5 -3.4 10.9
0 0

0101101
*
Ed
 1e-07 1 1 0
1  16 0 6.05 12.85
4 C0 21 0 22 0
2  27 21 0 6.05 12.85
2  28 22 0 6.05 12.85
0

0101000
+197 0 -202 0 *
Ve
1e-07
-15.5 -3.4 10.9
0 0

0101101
*
Ed
 1e-07 1 1 0
1  17 0 2.9 5.9
4 C0 21 0 3 0
2  29 21 0 2.9 5.9
2  30 3 0 2.9 5.9
2  31 5 0 2.9 5.9
0

0101000
+197 0 -195 0 *
Ve
1e-07
-15 -2.9 10.9
0 0

0101101
*
Ed
 1e-07 1 1 0
1  18 0 4.71238898038469 6.28318530717959
2  32 7 0 4.71238898038469 6.28318530717959
4 C0 7 0 21 0
2  33 21 0 4.71238898038469 6.28318530717959
0

0101000
+193 0 -195 0 *
Ve
1e-07
-15 2.9 10.9
0 0

0101101
*
Ed
 1e-07 1 1 0
1  19 0 0.5 6.3
4 C0 21 0 9 0
2  34 21 0 0.5 6.3
2  35 9 0 0.5 6.3
2  36 10 0 0.5 6.3
0

0101000
+193 0 -191 0 *
Ed
 1e-07 1 1 0
1  20 0 1.5707963267949 3.14159265358979
2  37 18 0 1.5707963267949 3.14159265358979
4 C0 21 0 18 0
2  38 21 0 1.5707963267949 3.14159265358979
0

0101000
+191 0 -204 0 *
Wi

0101100
-196 0 +194 0 -192 0 +190 0 +189 0 -201 0 *
Fa
0  1e-07 21 0

0101000
+188 0 *
Ve
1.5e-07
-15 2.9 12.1
0 0

0101101
*
Ed
 1e-07 1 1 0
1  21 0 0 1.2
2  39 18 0 0 1.2
4 G1 18 0 9 0
2  40 9 0 0 1.2
2  41 10 0 0 1.2
0

0101000
+191 0 -186 0 *
Ed
 1e-07 1 1 0
1  22 0 -1.03916875104915e-13 1.570796326795
2  42 18 0 -1.03916875104915e-13 1.570796326795
2  43 17 0 -1.03916875104915e-13 1.570796326795
0

0101000
+186 0 -206 0 *
Wi

0101100
-185 0 -184 0 +203 0 +189 0 *
Fa
0  1e-07 18 0

0101000
+183 0 *
Ve
1.00000012434498e-07
-11.9630683123147 2.4 12.1
0 0

0101101
*
Ve
1.00000007105427e-07
11.9630683123147 2.4 12.1
0 0

0101101
*
Ed
 1e-07 1 1 0
1  23 0 2.23693168768529 26.1630683123147
2  44 24 0 2.23693168768529 26.1630683123147
2  45 25 0 2.23693168768529 26.1630683123147
0

0101000
+181 0 -180 0 *
Ve
1.50000000444089e-07
15 2.01246117974981 12.1
0 0

0101101
*
Ed
 1e-07 1 1 0
1  24 0 0 1.20560990588739
2  46 26 0 0 1.20560990588739
0

0101000
+178 0 -180 0 *
Ve
1.5e-07
15 2.9 12.1
0 0

0101101
*
Ed
 1.5e-07 1 1 0
1  25 0 -5.8 -4.91246117974981
2  47 27 0 -5.8 -4.91246117974981
2  48 28 0 -5.8 -4.91246117974981
0

0101000
+176 0 -178 0 *
Ve
1e-07
15.5 3.4 12.1
0 0

0101101
*
Ed
 1e-07 1 1 0
1  26 0 4.71238898038469 6.2831853071801
2  49 29 0 4.71238898038469 6.2831853071801
2  50 28 0 4.71238898038469 6.2831853071801
0

0101000
+174 0 -176 0 *
Ve
1.5e-07
14.2 3.4 12.1
0 0

0101101
*
Ed
 1e-07 1 1 0
1  27 0 1 2.3
2  51 30 0 1 2.3
2  52 28 0 1 2.3
0

0101000
+172 0 -174 0 *
Ve
1e-07
14.2 4.2 12.1
0 0

0101101
*
Ed
 1e-07 1 1 0
1  28 0 1 1.8
2  53 31 0 1 1.8
2  54 25 0 1 1.8
0

0101000
+172 0 -170 0 *
Ve
1e-07
-14.2 4.2 12.1
0 0

0101101
*
Ed
 1e-07 1 1 0
1  29 0 0 28.4
2  55 32 0 0 28.4
2  56 25 0 0 28.4
0

0101000
-170 0 +168 0 *
Ed
 1e-07 1 1 0
1  30 0 1 1.8
2  57 16 0 1 1.8
2  58 25 0 1 1.8
0

0101000
+208 0 -168 0 *
Ve
1.50000000444089e-07
-15 2.01246117974981 12.1
0 0

0101101
*
Ed
 1.5e-07 1 1 0
1  31 0 -5.8 -4.91246117974981
2  59 9 0 -5.8 -4.91246117974981
2  60 17 0 -5.8 -4.91246117974981
0

0101000
+186 0 -165 0 *
Ed
 1e-07 1 1 0
1  32 0 0 1.20560990588738
2  61 13 0 0 1.20560990588738
0

0101000
+165 0 -181 0 *
Wi

0101100
+179 0 -177 0 -175 0 -173 0 -171 0 +169 0 -167 0 -166 0 -205 0 -184 0 
+164 0 +163 0 *
Fa
0  0 23 0

0101000
+162 0 *
Ve
1e-07
14.2 4.2 13.884
0 0

0101101
*
Ed
 1e-07 1 1 0
1  33 0 0 1.784
0

0101000
+160 0 -170 0 *
Ve
1e-07
-14.2 4.2 13.884
0 0

0101101
*
Ed
 1e-07 1 1 0
1  34 0 0 1.784
0

0101000
+158 0 -168 0 *
Ed
 1e-07 1 1 0
1  35 0 0 28.4
2  62 34 0 0 28.4
2  63 35 0 0 28.4
0

0101000
-160 0 +158 0 *
Wi

0101100
+159 0 -167 0 -157 0 +156 0 *
Fa
0  0 33 0

0101000
+155 0 *
Ve
1e-07
-14.2 2.4 13.884
0 0

0101101
*
Ed
 1e-07 1 1 0
1  36 0 0 1.8
2  64 36 0 0 1.8
2  65 35 0 0 1.8
0

0101000
-158 0 +153 0 *
Ve
1e-07
14.2 2.4 13.884
0 0

0101101
*
Ed
 1e-07 1 1 0
1  37 0 0 1.8
2  66 37 0 0 1.8
2  67 35 0 0 1.8
0

0101000
-160 0 +151 0 *
Ed
 1e-07 1 1 0
1  38 0 0 28.4
2  68 38 0 0 28.4
2  69 35 0 0 28.4
0

0101000
-151 0 +153 0 *
Wi

0101100
-152 0 -156 0 +150 0 +149 0 *
Fa
0  1e-07 35 0

0101000
+148 0 *
Ve
1e-07
14.2 2.4 13.284
0 0

0101101
*
Ed
 1e-07 1 1 0
1  39 0 0 0.6
2  70 37 0 0 0.6
2  71 38 0 0 0.6
0

0101000
+146 0 -151 0 *
Ve
1.5e-07
14.2 3.4 13.284
0 0

0101101
*
Ed
 1e-07 1 1 0
1  40 0 0 1
0

0101000
+144 0 -146 0 *
Ed
 1.5e-07 1 1 0
1  41 0 -1.184 0
2  72 30 0 -1.184 0
2  73 31 0 -1.184 0
0

0101000
+144 0 -172 0 *
Wi

0101100
-145 0 -143 0 +142 0 +169 0 -159 0 -150 0 *
Fa
0  0 39 0

0101000
+141 0 *
Ve
1.00000029407291e-07
11.9630683123147 2.40000000000001 13.284
0 0

0101101
*
Ve
1.00000100925563e-07
14.4369316876852 -2.40000000000003 13.284
0 0

0101101
*
Ed
 1e-07 1 1 0
1  42 0 2.0466785764553 5.18827123004507
2  74 26 0 2.0466785764553 5.18827123004507
2  75 41 0 2.0466785764553 5.18827123004507
0

0101000
+139 0 -138 0 *
Ve
1.5e-07
15 -2.4 13.284
0 0

0101101
*
Ed
 1e-07 1 1 0
1  43 0 1.2369316876852 1.8
2  76 42 0 1.2369316876852 1.8
2  77 43 0 1.2369316876852 1.8
0

0101000
+138 0 -136 0 *
Ve
1e-07
15 -2.9 13.284
0 0

0101101
*
Ed
 1e-07 1 1 0
1  44 0 0.5 1
4 C0 8 0 27 0
2  78 8 0 0.5 1
2  79 27 0 0.5 1
2  80 44 0 0.5 1
2  81 45 0 0.5 1
0

0101000
+134 0 -136 0 *
Ve
1e-07
15.5 -3.4 13.284
0 0

0101101
*
Ed
 1e-07 1 1 0
1  45 0 0 1.5707963267949
2  82 46 0 0 1.5707963267949
0

0101000
+134 0 -132 0 *
Ve
1e-07
18.5 -3.4 13.284
0 0

0101101
*
Ed
 1e-07 1 1 0
1  46 0 0.5 3.5
4 C0 47 0 48 0
2  83 47 0 0.5 3.5
2  84 48 0 0.5 3.5
2  85 49 0 0.5 3.5
2  86 45 0 0.5 3.5
0

0101000
+132 0 -130 0 *
Ve
1.50000000444089e-07
18.5 3.4 13.284
0 0

0101101
*
Ed
 1e-07 1 1 0
1  47 0 0 6.8
0

0101000
+130 0 -128 0 *
Ed
 1e-07 1 1 0
1  48 0 0 4.3
0

0101000
+128 0 -144 0 *
Ed
 1e-07 1 1 0
1  49 0 0 2.23693168768527
0

0101000
+139 0 -146 0 *
Wi

0101100
+137 0 +135 0 -133 0 +131 0 +129 0 +127 0 +126 0 +143 0 -125 0 *
Ve
1e-07
15.45 -5.51091059616309e-16 13.284
0 0

0101101
*
Ed
 1e-07 1 1 0
1  50 0 0 6.28318530717959
2  87 50 0 0 6.28318530717959
0

0101000
+123 0 -123 0 *
Wi

0101100
+122 0 *
Fa
0  0 40 0

0101000
+124 0 +121 0 *
Ve
1.00000000444089e-07
14.35 -2.81668763803891e-16 12.184
0 0

0101101
*
Ed
 1e-07 1 1 0
1  51 0 0 1.5556349186104
3  88 89CN 50 0 0 1.5556349186104
0

0101000
-123 0 +119 0 *
Ed
 1.00000000444089e-07 1 1 0
1  52 0 0 6.28318530717959
2  90 50 0 0 6.28318530717959
2  91 51 0 0 6.28318530717959
2  92 52 0 0 6.28318530717959
0

0101000
+119 0 -119 0 *
Wi

0101100
+118 0 +122 0 -118 0 +117 0 *
Fa
0  1e-07 50 0

0101000
+116 0 *
Ve
1.00000000281669e-07
14.35 -2.81668763803891e-16 11.484
0 0

0101101
*
Ed
 1e-07 1 1 0
1  53 0 1.484 2.184
3  93 94CN 52 0 1.484 2.184
0

0101000
+114 0 -119 0 *
Ed
 1e-07 1 1 0
1  54 0 0 6.28318530717959
2  95 53 0 0 6.28318530717959
2  96 52 0 0 6.28318530717959
2  97 54 0 0 6.28318530717959
0

0101100
+114 0 -114 0 *
Wi

0101100
-117 0 +113 0 +112 0 -113 0 *
Fa
0  1e-07 52 0

0101000
+111 0 *
Ve
1.5e-07
15 2.01246117974981 11.484
0 0

0101101
*
Ve
1.5e-07
15 -2.01246117974981 11.484
0 0

0101101
*
Ed
 1.5e-07 1 1 0
1  55 0 -3.71246117974981 0.312461179749811
2  98 27 0 -3.71246117974981 0.312461179749811
2  99 53 0 -3.71246117974981 0.312461179749811
0

0101000
+109 0 -108 0 *
Ed
 1e-07 1 1 0
1  56 0 0.84106867056793 5.44211663661166
2  100 26 0 0.84106867056793 5.44211663661166
2  101 53 0 0.84106867056793 5.44211663661166
0

0101000
+109 0 -108 0 *
Wi

0101100
-107 0 +106 0 *
Wi

0101100
-112 0 *
Fa
0  1e-07 53 0

0101000
+105 0 +104 0 *
Ve
1e-07
18.5 3.4 10.9
0 0

0101101
*
Ed
 1e-07 1 1 0
1  57 0 0.0999999999999996 2.484
4 C0 56 0 55 0
2  102 56 0 0.0999999999999996 2.484
2  103 55 0 0.0999999999999996 2.484
2  104 57 0 0.0999999999999996 2.484
0

0101000
+128 0 -102 0 *
Ve
1e-07
18.5 -3.4 10.9
0 0

0101101
*
Ed
 1e-07 1 1 0
1  58 0 -7.834 -5.45
4 C0 47 0 55 0
2  105 47 0 -7.834 -5.45
2  106 55 0 -7.834 -5.45
2  107 49 0 -7.834 -5.45
0

0101000
+130 0 -100 0 *
Ed
 1e-07 1 1 0
1  59 0 6.05 12.85
4 C0 58 0 55 0
2  108 58 0 6.05 12.85
2  109 55 0 6.05 12.85
0

0101000
+100 0 -102 0 *
Wi

0101100
-101 0 -127 0 +99 0 +98 0 *
Fa
0  1e-07 55 0

0101000
+97 0 *
Ve
1e-07
15 -2.9 10.9
0 0

0101101
*
Ve
1e-07
15 2.9 10.9
0 0

0101101
*
Ed
 1e-07 1 1 0
1  60 0 0.5 6.3
4 C0 58 0 27 0
2  110 58 0 0.5 6.3
2  111 27 0 0.5 6.3
2  112 44 0 0.5 6.3
0

0101000
+95 0 -94 0 *
Ve
1e-07
15.5 -3.4 10.9
0 0

0101101
*
Ed
 1e-07 1 1 0
1  61 0 4.71238898038469 6.28318530717959
2  113 46 0 4.71238898038469 6.28318530717959
4 C0 58 0 46 0
2  114 58 0 4.71238898038469 6.28318530717959
0

0101000
+95 0 -92 0 *
Ed
 1e-07 1 1 0
1  62 0 0.5 3.5
4 C0 58 0 47 0
2  115 58 0 0.5 3.5
2  116 47 0 0.5 3.5
2  117 49 0 0.5 3.5
0

0101000
+92 0 -100 0 *
Ve
1e-07
15.5 3.4 10.9
0 0

0101101
*
Ed
 1e-07 1 1 0
1  63 0 0.5 3.5
4 C0 56 0 58 0
2  118 56 0 0.5 3.5
2  119 58 0 0.5 3.5
2  120 57 0 0.5 3.5
0

0101000
+89 0 -102 0 *
Ed
 1e-07 1 1 0
1  64 0 1.5707963267949 3.14159265358979
2  121 29 0 1.5707963267949 3.14159265358979
4 C0 29 0 58 0
2  122 58 0 1.5707963267949 3.14159265358979
0

0101000
+94 0 -89 0 *
Wi

0101100
-93 0 +91 0 +90 0 +98 0 -88 0 -87 0 *
Fa
0  1e-07 58 0

0101000
+86 0 *
Ed
 1e-07 1 1 0
1  65 0 0 2.384
2  123 46 0 0 2.384
4 G1 47 0 46 0
2  124 47 0 0 2.384
2  125 49 0 0 2.384
0

0101000
+92 0 -132 0 *
Wi

0101100
-90 0 +84 0 +129 0 +99 0 *
Fa
0  1e-07 47 0

0101000
+83 0 *
Ed
 1e-07 1 1 0
1  66 0 0 2.384
2  126 46 0 0 2.384
4 G1 27 0 46 0
2  127 27 0 0 2.384
2  128 44 0 0 2.384
0

0101000
+95 0 -134 0 *
Wi

0101100
-81 0 +91 0 +84 0 -131 0 *
Fa
0  1e-07 46 0

0101000
+80 0 *
Ve
1.00000012434498e-07
14.4369316876853 -2.4 12.1
0 0

0101101
*
Ve
1.5e-07
15 -2.4 12.1
0 0

0101101
*
Ed
 1e-07 1 1 0
1  67 0 1.23693168768529 1.8
2  129 42 0 1.23693168768529 1.8
2  130 28 0 1.23693168768529 1.8
0

0101000
+78 0 -77 0 *
Ed
 1.5e-07 1 1 0
1  68 0 0.6 1.784
2  131 27 0 0.6 1.784
2  132 42 0 0.6 1.784
0

0101000
+77 0 -136 0 *
Ed
 1e-07 1 1 0
1  69 0 0.616 1.8
2  133 26 0 0.616 1.8
2  134 42 0 0.616 1.8
0

0101000
+78 0 -138 0 *
Wi

0101100
-76 0 -75 0 +135 0 +74 0 *
Fa
0  1e-07 42 0

0101000
+73 0 *
Ve
1.5e-07
15 -2.01246117974981 12.1
0 0

0101101
*
Ed
 1e-07 1 1 0
1  70 0 5.1882712300451 5.44211663661168
2  135 26 0 5.1882712300451 5.44211663661168
2  136 28 0 5.1882712300451 5.44211663661168
0

0101000
+78 0 -71 0 *
Ed
 1.5e-07 1 1 0
1  25 0 -0.887538820250189 -0.5
2  47 27 0 -0.887538820250189 -0.5
2  48 28 0 -0.887538820250189 -0.5
0

0101000
+71 0 -77 0 *
Wi

0101100
-70 0 -69 0 +76 0 *
Fa
0  1e-07 28 0

0101000
+68 0 *
Ed
 1e-07 1 1 0
1  71 0 0 1.2
2  137 29 0 0 1.2
4 G1 56 0 29 0
2  138 56 0 0 1.2
2  139 57 0 0 1.2
0

0101000
+89 0 -174 0 *
Wi

0101100
-171 0 -142 0 -126 0 +101 0 -88 0 +66 0 *
Fa
0  0 59 0

0101000
+65 0 *
Ed
 1e-07 1 1 0
1  72 0 0 1.2
2  140 29 0 0 1.2
4 G1 29 0 27 0
2  141 27 0 0 1.2
2  142 44 0 0 1.2
0

0101000
+94 0 -176 0 *
Wi

0101100
-173 0 +63 0 -87 0 -66 0 *
Fa
0  1e-07 29 0

0101000
+62 0 *
Ed
 1e-07 1 1 0
1  73 0 0 0.616
2  143 27 0 0 0.616
2  144 26 0 0 0.616
0

0101000
+108 0 -71 0 *
Ed
 1e-07 1 1 0
1  74 0 0 0.616
2  145 27 0 0 0.616
2  146 26 0 0 0.616
0

0101000
+109 0 -178 0 *
Wi

0101100
-133 0 +75 0 +69 0 +60 0 +107 0 -59 0 +175 0 +63 0 +93 0 -81 0 
*
Fa
0  1e-07 27 0

0101000
+58 0 *
Ed
 1e-07 1 1 0
1  75 0 0.616 1.8
2  147 26 0 0.616 1.8
2  148 24 0 0.616 1.8
0

0101000
+180 0 -139 0 *
Wi

0101100
-137 0 -56 0 -177 0 -59 0 +106 0 +60 0 -70 0 +74 0 *
Fa
0  1e-07 26 0

0101000
+55 0 *
Ed
 1e-07 1 1 0
1  76 0 0 0.6
2  149 36 0 0 0.6
2  150 38 0 0 0.6
0

0101000
+215 0 -153 0 *
Wi

0101100
-53 0 +212 0 +207 0 +166 0 -157 0 -152 0 *
Fa
0  0 60 0

0101000
+52 0 *
Ed
 1e-07 1 1 0
1  77 0 0.616 1.8
2  151 62 0 0.616 1.8
2  152 24 0 0.616 1.8
2  153 13 0 0.616 1.8
0

0101000
+181 0 -217 0 *
Wi

0101100
+53 0 +149 0 -145 0 -125 0 -56 0 -179 0 +50 0 +214 0 *
Fa
0  0 61 0

0101000
+49 0 *
Ve
1.00000008881784e-07
-14.4369316876853 -2.4 12.1
0 0

0101101
*
Ed
 1e-07 1 1 0
1  78 0 0.616 1.8
2  154 62 0 0.616 1.8
2  155 11 0 0.616 1.8
2  156 13 0 0.616 1.8
0

0101000
+47 0 -219 0 *
Ve
1.5e-07
-15 -2.01246117974981 12.1
0 0

0101101
*
Ed
 1e-07 1 1 0
1  79 0 3.98266132415772 4.23650673072427
2  157 62 0 3.98266132415772 4.23650673072427
2  158 17 0 3.98266132415772 4.23650673072427
2  159 13 0 3.98266132415772 4.23650673072427
0

0101000
+45 0 -47 0 *
Ve
1.5e-07
-15 -2.01246117974981 11.484
0 0

0101101
*
Ed
 1e-07 1 1 0
1  80 0 0 0.616
2  160 9 0 0 0.616
2  161 62 0 0 0.616
2  162 13 0 0 0.616
0

0101000
+43 0 -45 0 *
Ve
1.5e-07
-15 2.01246117974981 11.484
0 0

0101101
*
Ed
 1e-07 1 1 0
1  81 0 0 4.60104796604373
2  163 13 0 0 4.60104796604373
2  164 63 0 0 4.60104796604373
0

0101000
+41 0 -43 0 *
Ed
 1e-07 1 1 0
1  82 0 0 0.616
2  165 9 0 0 0.616
2  166 62 0 0 0.616
2  167 13 0 0 0.616
0

0101000
+41 0 -165 0 *
Wi

0101100
-216 0 -46 0 -44 0 -42 0 -40 0 +39 0 +163 0 +50 0 *
Fa
0  0 13 0

0101000
+38 0 *
Ed
 1.5e-07 1 1 0
1  83 0 -3.71246117974981 0.31246117974981
2  168 9 0 -3.71246117974981 0.31246117974981
2  169 63 0 -3.71246117974981 0.31246117974981
0

0101000
+41 0 -43 0 *
Wi

0101100
+36 0 -40 0 *
Ve
1.00000000281669e-07
-12.05 -2.81668763803892e-16 11.484
0 0

0101101
*
Ed
 1e-07 1 1 0
1  84 0 0 6.28318530717959
2  170 63 0 0 6.28318530717959
2  171 64 0 0 6.28318530717959
2  172 65 0 0 6.28318530717959
0

0101100
+34 0 -34 0 *
Wi

0101100
-33 0 *
Fa
0  1e-07 63 0

0101000
+35 0 +32 0 *
Ve
1.00000000444089e-07
-12.05 -2.81668763803892e-16 12.184
0 0

0101101
*
Ed
 1.00000000444089e-07 1 1 0
1  85 0 0 6.28318530717959
2  173 2 0 0 6.28318530717959
2  174 66 0 0 6.28318530717959
2  175 64 0 0 6.28318530717959
0

0101000
+30 0 -30 0 *
Ed
 1e-07 1 1 0
1  86 0 1.484 2.184
3  176 177CN 64 0 1.484 2.184
0

0101000
+34 0 -30 0 *
Wi

0101100
-29 0 +28 0 +33 0 -28 0 *
Fa
0  1e-07 64 0

0101000
+27 0 *
Ve
1.5e-07
-15 -2.4 12.1
0 0

0101101
*
Ed
 1.5e-07 1 1 0
1  31 0 -0.887538820250189 -0.5
2  59 9 0 -0.887538820250189 -0.5
2  60 17 0 -0.887538820250189 -0.5
0

0101000
+45 0 -25 0 *
Ed
 1e-07 1 1 0
1  87 0 1.3 1.86306831231469
2  178 11 0 1.3 1.86306831231469
2  179 17 0 1.3 1.86306831231469
0

0101000
+25 0 -47 0 *
Wi

0101100
+24 0 -44 0 +23 0 *
Fa
0  1e-07 17 0

0101000
+22 0 *
Ed
 1.5e-07 1 1 0
1  88 0 0.6 1.784
2  180 9 0 0.6 1.784
2  181 11 0 0.6 1.784
0

0101000
+25 0 -221 0 *
Wi

0101100
-23 0 -46 0 +218 0 +20 0 *
Fa
0  1e-07 11 0

0101000
+19 0 *
Ed
 1e-07 1 1 0
1  89 0 0 2.384
2  182 7 0 0 2.384
4 G1 7 0 9 0
2  183 9 0 0 2.384
2  184 10 0 0 2.384
0

0101000
+193 0 -223 0 *
Wi

0101100
-220 0 +20 0 +24 0 +42 0 +36 0 -39 0 +164 0 +185 0 +190 0 -17 0 
*
Fa
0  1e-07 9 0

0101000
+16 0 *
Ed
 1e-07 1 1 0
1  90 0 0 2.384
2  185 7 0 0 2.384
4 G1 7 0 3 0
2  186 3 0 0 2.384
2  187 5 0 0 2.384
0

0101000
+195 0 -225 0 *
Wi

0101100
-222 0 -14 0 -192 0 +17 0 *
Fa
0  1e-07 7 0

0101000
+13 0 *
Ed
 1e-07 1 1 0
1  91 0 -7.834 -5.45
4 C0 22 0 3 0
2  188 22 0 -7.834 -5.45
2  189 3 0 -7.834 -5.45
2  190 5 0 -7.834 -5.45
0

0101000
+227 0 -197 0 *
Wi

0101100
-194 0 -11 0 +224 0 -14 0 *
Fa
0  1e-07 3 0

0101000
+10 0 *
Wi

0101100
+226 0 +11 0 +196 0 +200 0 *
Fa
0  1e-07 22 0

0101000
+8 0 *
Ed
 1e-07 1 1 0
1  92 0 0 1.5556349186104
3  191 192CN 2 0 0 1.5556349186104
0

0101000
-231 0 +30 0 *
Wi

0101100
+6 0 +230 0 -6 0 +29 0 *
Fa
0  1e-07 2 0

0101000
+5 0 *
Sh

0101100
+209 0 +198 0 -187 0 +182 0 -161 0 +154 0 +147 0 +140 0 +120 0 -115 0 
-110 0 -103 0 +96 0 -85 0 -82 0 +79 0 -72 0 -67 0 +64 0 +61 0 
-57 0 +54 0 -51 0 -48 0 +37 0 -31 0 -26 0 -21 0 -18 0 +15 0 
+12 0 -9 0 -7 0 -4 0 *
So

0100000
+3 0 *
Co

1100000
+2 0 *

+1 0 