DBRep_DrawableShape

CASCADE Topology V3, (c) Open Cascade
Locations 0
Curve2ds 20
7 0 0  1 2 2  5.9784926531640004 -5.9999999990619997e-07  5.9784926531640004 1.6000006 
 -5.9999999990619997e-07 2 1.6000006 2
1 0 1.6000000000000001 1 0 
1 3.1415926535900001 0.40000000000000002 0 1 
1 0 0.40000000000000002 1 0 
7 0 0  1 2 2  0.30469265401500001 -5.9999999990619997e-07  0.30469265401500001 1.6000006 
 -5.9999999990619997e-07 2 1.6000006 2
1 0 0 1 0 
7 0 0  1 2 2  6.2831853071800001 0.40000000000000002  6.2831853071800001 1.6000000000000001 
 0.40000000000000002 2 1.6000000000000001 2
7 0 0  1 2 2  6.2831853071800001 0.40000000000000002  9.1200853067539995 0.40000000000000002 
 0 2 2.8368999995739999 2
7 0 0  1 2 2  3.4462853076050002 1.6000000000000001  6.2831853071800001 1.6000000000000001 
 3.4462853076050002 2 6.2831853071800001 2
7 0 0  1 2 2  3.4462853076050002 0  3.4462853076050002 1.6000000000000001 
 0 2 1.6000000000000001 2
1 9.1200853067539995 0 -1 -0 
7 0 0  1 2 2  9.1200853067539995 0  9.1200853067539995 0.40000000000000002 
 0 2 0.40000000000000002 2
1 0 0.5 1 0 
1 6.2831853071800001 2.1000000000000001 -1 -0 
1 6.2831853071800001 -0 0 1 
1 0 -0 0 1 
1 6.2831853071800001 2.1000000000000001 -1 -0 
1 6.2831853071800001 -0 0 1 
1 0 -0 0 1 
1 0 0.5 1 0 
Curves 93
1 -4.2382 -11.49580020904 8.3000000000000007 -0 1 0 
1 -4.2382 -11.49580020904 7.0999999999999996 0 0 1 
1 -4.2382 -11.49580020904 7.0999999999999996 -0 1 0 
1 -4.2382 -0.73580000000000001 7.0999999999999996 0 0.70710678118654757 0.70710678118654757 
1 -4.2382 -0.16067183638800001 7.9000000000000004 0 -1 0 
1 -4.2382 0.054199999999999998 7.9203820426379998 0 -0 1 
1 -4.2382 0.064199999999999993 8.6999999999999993 0 -0.89442719099991597 -0.44721359549995798 
1 -4.2382 -11.49580020904 8.3000000000000007 -0 1 0 
1 -4.2382 -5.5158001045229996 7.3000000000000007 0 0 1 
1 -4.2382 -9.1058001567839995 7.5 0 -1 0 
1 -4.2382 -6.7158001045229998 7.3000000000000007 0 0 1 
1 -6.5582000000000003 -6.7158001045229998 7.5 1 0 -0 
1 -4.6503215971660001 -6.7158001045229998 7.5 0 0 1 
1 -6.5582000000000003 -6.7158001045229998 9.0999999999999996 1 0 -0 
1 -3.8382000000000001 -6.7158001045229998 7.5 0 0 1 
1 -5.3982000000000001 -6.7158001045229998 8.3000000000000007 -1 -0 0 
2 -6.5582000000000003 -6.1158001045230002 9.0999999999999996 0 0 1 1 0 -0 -0 1 0 2
1 -8.5581999999999994 -6.1158001045230002 7.9000000000000004 0 0 1 
2 -6.5582000000000003 -6.1158001045230002 7.9000000000000004 0 0 1 1 0 -0 -0 1 0 2
1 -4.6503215971660001 -5.5158001045229996 7.5 0 0 1 
2 -6.5582000000000003 -6.1158001045230002 7.5 0 0 1 1 0 -0 -0 1 0 2
1 -8.5581999999999994 -6.1158001045230002 7.9000000000000004 -0 1 0 
1 -8.5581999999999994 1.2342 7.9000000000000004 0 0 1 
1 -8.5581999999999994 -6.1158001045230002 9.0999999999999996 -0 1 0 
1 -8.5581999999999994 1.2342 7.9000000000000004 1 0 0 
1 -8.5581999999999994 1.2342 9.0999999999999996 1 0 -0 
1 -4.5582000000000003 1.2342 7.9000000000000004 0 0 1 
1 -6.5582000000000003 1.2342 8.6999999999999993 1 0 -0 
1 4.8418000000000001 1.2342 7.9000000000000004 0 0 1 
1 4.8418000000000001 1.2342 9.0999999999999996 1 0 -0 
1 8.8417999999999992 1.2342 7.9000000000000004 0 0 1 
1 8.8417999999999992 -6.1158001045230002 7.5 0 0 1 
1 8.8417999999999992 -6.1158001045230002 7.9000000000000004 -0 1 0 
1 8.8417999999999992 -6.1158001045230002 9.0999999999999996 -0 1 0 
2 6.8418000000000001 -6.1158001045230002 7.9000000000000004 0 0 1 1 0 -0 -0 1 0 2
2 6.8418000000000001 -6.1158001045230002 9.0999999999999996 0 0 1 1 0 -0 -0 1 0 2
1 4.933921597166 -6.7158001045229998 7.5 0 0 1 
2 6.8418000000000001 -6.1158001045230002 7.5 0 0 -1 -0.95393920141695054 0.29999999999998445 0 0.29999999999998445 0.95393920141695054 0 2
1 4.933921597166 -5.5158001045229996 7.5 0 0 1 
1 4.1218000000000004 -5.5158001045229996 7.5 1 0 -0 
1 4.5217999999999998 -5.5158001045229996 7.3000000000000007 0 0 1 
1 -0.058200000000000002 -5.5158001045229996 8.3000000000000007 -1 -0 0 
1 4.1218000000000004 -5.5158001045229996 7.5 0 0 1 
1 4.1218000000000004 -5.5158001045229996 9.0999999999999996 1 0 -0 
1 4.8418000000000001 -5.5158001045229996 7.6999999999999993 -0 0 -1 
1 4.4817999999999998 -5.5158001045229996 7.9000000000000004 1 0 -0 
1 4.5217999999999998 -11.49580020904 8.3000000000000007 -0 1 0 
1 4.5217999999999998 -11.49580020904 7.0999999999999996 0 0 1 
1 4.5217999999999998 -11.49580020904 7.0999999999999996 -0 1 0 
1 4.5217999999999998 -0.73580000000000001 7.0999999999999996 0 0.70710678118654757 0.70710678118654757 
1 4.5217999999999998 -0.16067183638800001 7.9000000000000004 0 -1 0 
1 4.5217999999999998 0.054199999999999998 7.9203820426379998 0 -0 1 
1 4.5217999999999998 0.064199999999999993 8.6999999999999993 0 -0.89442719099991597 -0.44721359549995798 
1 4.5217999999999998 -11.49580020904 8.3000000000000007 -0 1 0 
1 4.5217999999999998 -9.1058001567839995 7.5 0 -1 0 
1 4.5217999999999998 -6.7158001045229998 7.3000000000000007 0 0 1 
1 4.1218000000000004 -6.7158001045229998 7.5 0 0 1 
1 4.1218000000000004 -9.1058001567839995 8.3000000000000007 -0 1 0 
1 4.1218000000000004 -6.7158001045229998 9.0999999999999996 -0 1 0 
1 4.1218000000000004 -6.7158001045229998 7.5 1 0 -0 
2 6.8418000000000001 -6.1158001045230002 7.5 0 0 1 1 0 -0 -0 1 0 1.1000000000000001
2 6.8418000000000001 -6.1158001045230002 9.0999999999999996 0 0 -1 1 0 0 0 -1 0 1.1000000000000001
1 7.9417999999999997 -6.1158001045230002 7 0 0 1 
1 -0.058200000000000002 -6.7158001045229998 8.3000000000000007 -1 -0 0 
1 4.1218000000000004 -6.7158001045229998 9.0999999999999996 1 0 -0 
1 4.8418000000000001 -6.1158001045230002 9.0999999999999996 -0 1 0 
1 4.8418000000000001 -6.1158001045230002 7.9000000000000004 -0 1 0 
1 4.8418000000000001 0.054199999999999998 7.9000000000000004 -0 0 -1 
1 4.8418000000000001 -3.0308000522610001 8.6999999999999993 -0 1 0 
1 -4.5582000000000003 -3.0308000522610001 8.6999999999999993 -0 1 0 
1 -6.5582000000000003 0.054199999999999998 8.6999999999999993 1 0 -0 
1 -4.5582000000000003 -5.5158001045229996 7.6999999999999993 -0 0 -1 
1 -4.5582000000000003 -6.1158001045230002 7.9000000000000004 -0 1 0 
1 -4.5582000000000003 0.054199999999999998 7.9000000000000004 -0 0 -1 
1 -4.5582000000000003 -6.1158001045230002 9.0999999999999996 -0 1 0 
1 -6.5582000000000003 -5.5158001045229996 9.0999999999999996 1 0 -0 
1 -3.8382000000000001 -6.7158001045229998 9.0999999999999996 -0 1 0 
2 -6.5582000000000003 -6.1158001045230002 9.0999999999999996 0 0 -1 1 -1.6148698540000001e-15 0 -1.6148698540000001e-15 -1 -0 1.1000000000000001
1 -5.4581999999999997 -6.1158001045230002 7 0 0 1 
2 -6.5582000000000003 -6.1158001045230002 7.5 0 0 1 1 0 -0 -0 1 0 1.1000000000000001
1 -3.8382000000000001 -9.1058001567839995 8.3000000000000007 -0 1 0 
1 -3.8382000000000001 -5.5158001045229996 7.5 0 0 1 
1 -6.5582000000000003 -5.5158001045229996 7.5 1 0 -0 
1 -7.5582000000000003 -5.5158001045229996 7.9000000000000004 1 0 -0 
1 -5.3982000000000001 -5.5158001045229996 8.3000000000000007 -1 -0 0 
1 -5.3982000000000001 0.054199999999999998 8.6950000000000003 1 0 0 
1 -4.2382 -0.73580000000000001 8.3000000000000007 1 0 -0 
1 -6.5582000000000003 0.054199999999999998 7.9000000000000004 1 0 -0 
1 -6.5582000000000003 0.054199999999999998 7.9000000000000004 1 0 -0 
1 -4.2382 0.064199999999999993 7.9000000000000004 1 0 0 
1 -4.2382 -0.73580000000000001 7.0999999999999996 1 0 -0 
1 -4.2382 -11.49580020904 7.0999999999999996 1 0 -0 
1 -4.2382 -11.49580020904 8.3000000000000007 1 0 -0 
Polygon3D 0
PolygonOnTriangulations 0
Surfaces 29
1 -4.2382 -11.49580020904 7.0999999999999996 1 0 -0 0 0 1 0 -1 0 
1 -6.5582000000000003 -6.7158001045229998 7.5 -0 1 0 0 0 1 1 0 -0 
2 -6.5582000000000003 -6.1158001045230002 7.5 0 0 1 1 0 -0 -0 1 0 2
1 -8.5581999999999994 -6.1158001045230002 7.9000000000000004 1 0 -0 0 0 1 0 -1 0 
1 -8.5581999999999994 1.2342 7.9000000000000004 -0 1 0 0 0 1 1 0 -0 
1 8.8417999999999992 -6.1158001045230002 7.9000000000000004 1 0 -0 0 0 1 0 -1 0 
2 6.8418000000000001 -6.1158001045230002 7.5 0 0 1 1 0 -0 -0 1 0 2
1 4.1218000000000004 -5.5158001045229996 7.5 -0 1 0 0 0 1 1 0 -0 
1 4.5217999999999998 -11.49580020904 7.0999999999999996 1 0 -0 0 0 1 0 -1 0 
1 4.1218000000000004 -6.7158001045229998 7.5 1 0 -0 0 0 1 0 -1 0 
1 4.1218000000000004 -6.7158001045229998 7.5 0 0 1 1 0 -0 -0 1 0 
2 6.8418000000000001 -6.1158001045230002 7 0 0 1 1 0 -0 -0 1 0 1.1000000000000001
1 4.1218000000000004 -6.7158001045229998 7.5 -0 1 0 0 0 1 1 0 -0 
1 4.1218000000000004 -6.7158001045229998 9.0999999999999996 0 0 1 1 0 -0 -0 1 0 
1 4.8418000000000001 -6.1158001045230002 7.9000000000000004 1 0 -0 0 0 1 0 -1 0 
1 -6.5582000000000003 0.054199999999999998 8.6999999999999993 0 0 1 1 0 -0 -0 1 0 
1 -4.5582000000000003 -6.1158001045230002 7.9000000000000004 1 0 -0 0 0 1 0 -1 0 
1 -6.5582000000000003 -6.7158001045229998 9.0999999999999996 0 0 1 1 0 -0 -0 1 0 
2 -6.5582000000000003 -6.1158001045230002 7 0 0 1 1 0 -0 -0 1 0 1.1000000000000001
1 -3.8382000000000001 -6.7158001045229998 7.5 1 0 -0 0 0 1 0 -1 0 
1 -6.5582000000000003 -6.7158001045229998 7.5 0 0 1 1 0 -0 -0 1 0 
1 -6.5582000000000003 -5.5158001045229996 7.5 -0 1 0 0 0 1 1 0 -0 
1 -4.2382 0.064199999999999993 8.6999999999999993 0 0.44721359549995798 -0.89442719099991597 0 -0.89442719099991597 -0.44721359549995798 -1 0 -0 
1 -6.5582000000000003 0.054199999999999998 7.9000000000000004 -0 1 0 0 0 1 1 0 -0 
1 -8.5581999999999994 -6.1158001045230002 7.9000000000000004 0 0 1 1 0 -0 -0 1 0 
1 -4.2382 -0.73580000000000001 7.0999999999999996 0 -0.70710678118654757 0.70710678118654757 0 0.70710678118654757 0.70710678118654757 -1 0 0 
1 -4.2382 -11.49580020904 7.0999999999999996 0 0 1 1 0 -0 -0 1 0 
1 -4.2382 -11.49580020904 7.0999999999999996 -0 1 0 0 0 1 1 0 -0 
1 -4.2382 -11.49580020904 8.3000000000000007 0 0 1 1 0 -0 -0 1 0 
Triangulations 0

TShapes 219
Ve
1e-07
-4.2382 -11.49580020904 8.3
0 0

0101101
*
Ve
1e-07
-4.2382 -6.715800104523 8.3
0 0

0101101
*
Ed
 1e-07 1 1 0
1  1 0 0 4.780000104517
0

0101000
+219 0 -218 0 *
Ve
1e-07
-4.2382 -11.49580020904 7.1
0 0

0101101
*
Ed
 1e-07 1 1 0
1  2 0 0 1.2
0

0101000
+216 0 -219 0 *
Ve
1e-07
-4.2382 -0.7358 7.1
0 0

0101101
*
Ed
 1e-07 1 1 0
1  3 0 0 10.76000020904
0

0101000
+216 0 -214 0 *
Ve
1e-07
-4.2382 0.0642 7.9
0 0

0101101
*
Ed
 1e-07 1 1 0
1  4 0 0 1.13137084989848
0

0101000
+214 0 -212 0 *
Ve
1e-07
-4.2382 0.0542 7.9
0 0

0101101
*
Ed
 1e-07 1 1 0
1  5 0 -0.224871836388 -0.214871836388
0

0101000
+212 0 -210 0 *
Ve
1e-07
-4.2382 0.0542 8.695
0 0

0101101
*
Ed
 1e-07 1 1 0
1  6 0 -0.0203820426379995 0.774617957362
0

0101000
+210 0 -208 0 *
Ve
1e-07
-4.2382 -0.7358 8.3
0 0

0101101
*
Ed
 1e-07 1 1 0
1  7 0 0.0111803398874985 0.894427190999915
0

0101000
+208 0 -206 0 *
Ve
1e-07
-4.2382 -5.515800104523 8.3
0 0

0101101
*
Ed
 1e-07 1 1 0
1  8 0 5.980000104517 10.76000020904
0

0101000
+204 0 -206 0 *
Ve
1e-07
-4.2382 -5.515800104523 7.5
0 0

0101101
*
Ed
 1e-07 1 1 0
1  9 0 0.199999999999999 1
0

0101000
+202 0 -204 0 *
Ve
1e-07
-4.2382 -6.715800104523 7.5
0 0

0101101
*
Ed
 1e-07 1 1 0
1  10 0 -3.590000052261 -2.390000052261
0

0101000
+202 0 -200 0 *
Ed
 1e-07 1 1 0
1  11 0 0.199999999999999 1
0

0101000
+200 0 -218 0 *
Wi

0101100
-217 0 -215 0 +213 0 +211 0 +209 0 +207 0 +205 0 -203 0 -201 0 +199 0 
+198 0 *
Fa
0  1e-07 1 0

0101000
+197 0 *
Ve
1e-07
-4.650321597166 -6.715800104523 7.5
0 0

0101101
*
Ed
 1e-07 1 1 0
1  12 0 1.907878402834 2.32
0

0101000
+195 0 -200 0 *
Ve
1e-07
-4.650321597166 -6.715800104523 9.1
0 0

0101101
*
Ed
 1e-07 1 1 0
1  13 0 0 1.6
2  1 3 0 0 1.6
0

0101000
+195 0 -193 0 *
Ve
1e-07
-3.8382 -6.715800104523 9.1
0 0

0101101
*
Ed
 1e-07 1 1 0
1  14 0 1.907878402834 2.72
0

0101000
+193 0 -191 0 *
Ve
1e-07
-3.8382 -6.715800104523 8.3
0 0

0101101
*
Ed
 1e-07 1 1 0
1  15 0 0.800000000000001 1.6
0

0101000
+189 0 -191 0 *
Ed
 1e-07 1 1 0
1  16 0 -1.56 -1.16
0

0101000
+189 0 -218 0 *
Wi

0101100
-194 0 +192 0 +190 0 -188 0 +187 0 -198 0 *
Fa
0  1e-07 2 0

0101000
+186 0 *
Ve
1e-07
-8.5582 -6.115800104523 9.1
0 0

0101101
*
Ed
 1e-07 1 1 0
1  17 0 3.14159265358979 5.97849265316421
2  2 3 0 3.14159265358979 5.97849265316421
0

0101000
+184 0 -193 0 *
Ve
1e-07
-8.5582 -6.115800104523 7.9
0 0

0101101
*
Ed
 1e-07 1 1 0
1  18 0 0 1.2
2  3 3 0 0 1.2
4 G1 3 0 4 0
0

0101000
+182 0 -184 0 *
Ve
1e-07
-4.650321597166 -5.515800104523 7.9
0 0

0101101
*
Ed
 1e-07 1 1 0
1  19 0 0.304692654015381 3.14159265358979
2  4 3 0 0.304692654015381 3.14159265358979
0

0101000
+180 0 -182 0 *
Ve
1e-07
-4.650321597166 -5.515800104523 7.5
0 0

0101101
*
Ed
 1e-07 1 1 0
1  20 0 0 0.4
2  5 3 0 0 0.4
0

0101000
+178 0 -180 0 *
Ed
 1e-07 1 1 0
1  21 0 0.304692654015381 5.97849265316421
2  6 3 0 0.304692654015381 5.97849265316421
0

0101000
+178 0 -195 0 *
Wi

0101100
-183 0 -181 0 -179 0 -177 0 +176 0 +192 0 *
Fa
0  1e-07 3 0

0101000
+175 0 *
Ve
1e-07
-8.5582 1.2342 7.9
0 0

0101101
*
Ed
 1e-07 1 1 0
1  22 0 0 7.350000104523
0

0101000
+182 0 -173 0 *
Ve
1e-07
-8.5582 1.2342 9.1
0 0

0101101
*
Ed
 1e-07 1 1 0
1  23 0 0 1.2
0

0101000
+173 0 -171 0 *
Ed
 1e-07 1 1 0
1  24 0 0 7.350000104523
0

0101000
+184 0 -171 0 *
Wi

0101100
-181 0 +172 0 +170 0 -169 0 *
Fa
0  1e-07 4 0

0101000
+168 0 *
Ve
1e-07
8.8418 1.2342 7.9
0 0

0101101
*
Ed
 1e-07 1 1 0
1  25 0 0 17.4
0

0101000
+173 0 -166 0 *
Ve
1e-07
-4.5582 1.2342 9.1
0 0

0101101
*
Ed
 1e-07 1 1 0
1  26 0 0 4
0

0101000
+171 0 -164 0 *
Ve
1e-07
-4.5582 1.2342 8.7
0 0

0101101
*
Ed
 1e-07 1 1 0
1  27 0 0.799999999999999 1.2
0

0101000
+162 0 -164 0 *
Ve
1e-07
4.8418 1.2342 8.7
0 0

0101101
*
Ed
 1e-07 1 1 0
1  28 0 2 11.4
0

0101000
+162 0 -160 0 *
Ve
1e-07
4.8418 1.2342 9.1
0 0

0101101
*
Ed
 1e-07 1 1 0
1  29 0 0.799999999999999 1.2
0

0101000
+160 0 -158 0 *
Ve
1e-07
8.8418 1.2342 9.1
0 0

0101101
*
Ed
 1e-07 1 1 0
1  30 0 0 4
0

0101000
+158 0 -156 0 *
Ed
 1e-07 1 1 0
1  31 0 0 1.2
0

0101000
+166 0 -156 0 *
Wi

0101100
-165 0 +170 0 +163 0 -161 0 +159 0 +157 0 +155 0 -154 0 *
Fa
0  1e-07 5 0

0101000
+153 0 *
Ve
1e-07
8.8418 -6.115800104523 7.9
0 0

0101101
*
Ve
1e-07
8.8418 -6.115800104523 9.1
0 0

0101101
*
Ed
 1e-07 1 1 0
1  32 0 0.4 1.6
2  7 7 0 0.4 1.6
4 G1 6 0 7 0
0

0101000
+151 0 -150 0 *
Ed
 1e-07 1 1 0
1  33 0 0 7.350000104523
0

0101000
+151 0 -166 0 *
Ed
 1e-07 1 1 0
1  34 0 0 7.350000104523
0

0101000
+150 0 -156 0 *
Wi

0101100
-149 0 +148 0 +154 0 -147 0 *
Fa
0  1e-07 6 0

0101000
+146 0 *
Ve
1e-07
4.933921597166 -5.515800104523 7.9
0 0

0101101
*
Ed
 1e-07 1 1 0
1  35 0 0 2.83689999957441
2  8 7 0 0 2.83689999957441
0

0101000
+151 0 -144 0 *
Ve
1e-07
4.933921597166 -6.715800104523 9.1
0 0

0101101
*
Ed
 1e-07 1 1 0
1  36 0 3.44628530760517 6.28318530717959
2  9 7 0 3.44628530760517 6.28318530717959
0

0101000
+142 0 -150 0 *
Ve
1e-07
4.933921597166 -6.715800104523 7.5
0 0

0101101
*
Ed
 1e-07 1 1 0
1  37 0 0 1.6
2  10 7 0 0 1.6
0

0101000
+140 0 -142 0 *
Ve
1e-07
4.933921597166 -5.515800104523 7.5
0 0

0101101
*
Ed
 1e-07 1 1 0
1  38 0 0 5.67379999914882
2  11 7 0 0 5.67379999914882
0

0101000
+138 0 -140 0 *
Ed
 1e-07 1 1 0
1  39 0 0 0.4
2  12 7 0 0 0.4
0

0101000
+138 0 -144 0 *
Wi

0101100
-143 0 +149 0 -141 0 -139 0 -137 0 +136 0 *
Fa
0  1e-07 7 0

0101000
+135 0 *
Ve
1e-07
4.5218 -5.515800104523 7.5
0 0

0101101
*
Ed
 1e-07 1 1 0
1  40 0 0.399999999999999 0.812121597166
0

0101000
+133 0 -138 0 *
Ve
1e-07
4.5218 -5.515800104523 8.3
0 0

0101101
*
Ed
 1e-07 1 1 0
1  41 0 0.199999999999999 1
0

0101000
+133 0 -131 0 *
Ve
1e-07
4.1218 -5.515800104523 8.3
0 0

0101101
*
Ed
 1e-07 1 1 0
1  42 0 -4.58 -4.18
0

0101000
+131 0 -129 0 *
Ve
1e-07
4.1218 -5.515800104523 9.1
0 0

0101101
*
Ed
 1e-07 1 1 0
1  43 0 0.800000000000001 1.6
0

0101000
+129 0 -127 0 *
Ve
1e-07
4.8418 -5.515800104523 9.1
0 0

0101101
*
Ed
 1e-07 1 1 0
1  44 0 0 0.72
0

0101000
+127 0 -125 0 *
Ve
1e-07
4.8418 -5.515800104523 7.9
0 0

0101101
*
Ed
 1e-07 1 1 0
1  45 0 -1.4 -0.200000000000001
0

0101000
+125 0 -123 0 *
Ed
 1e-07 1 1 0
1  46 0 0.36 0.452121597166
0

0101000
+123 0 -144 0 *
Wi

0101100
-132 0 +130 0 +128 0 +126 0 +124 0 +122 0 +121 0 -136 0 *
Fa
0  1e-07 8 0

0101000
+120 0 *
Ve
1e-07
4.5218 -11.49580020904 8.3
0 0

0101101
*
Ve
1e-07
4.5218 -6.715800104523 8.3
0 0

0101101
*
Ed
 1e-07 1 1 0
1  47 0 0 4.780000104517
0

0101000
+118 0 -117 0 *
Ve
1e-07
4.5218 -11.49580020904 7.1
0 0

0101101
*
Ed
 1e-07 1 1 0
1  48 0 0 1.2
0

0101000
+115 0 -118 0 *
Ve
1e-07
4.5218 -0.7358 7.1
0 0

0101101
*
Ed
 1e-07 1 1 0
1  49 0 0 10.76000020904
0

0101000
+115 0 -113 0 *
Ve
1e-07
4.5218 0.0642 7.9
0 0

0101101
*
Ed
 1e-07 1 1 0
1  50 0 0 1.13137084989848
0

0101000
+113 0 -111 0 *
Ve
1e-07
4.5218 0.0542 7.9
0 0

0101101
*
Ed
 1e-07 1 1 0
1  51 0 -0.224871836388 -0.214871836388
0

0101000
+111 0 -109 0 *
Ve
1e-07
4.5218 0.0542 8.695
0 0

0101101
*
Ed
 1e-07 1 1 0
1  52 0 -0.0203820426379995 0.774617957362
0

0101000
+109 0 -107 0 *
Ve
1e-07
4.5218 -0.7358 8.3
0 0

0101101
*
Ed
 1e-07 1 1 0
1  53 0 0.0111803398874985 0.894427190999915
0

0101000
+107 0 -105 0 *
Ed
 1e-07 1 1 0
1  54 0 5.980000104517 10.76000020904
0

0101000
+131 0 -105 0 *
Ve
1e-07
4.5218 -6.715800104523 7.5
0 0

0101101
*
Ed
 1e-07 1 1 0
1  55 0 -3.590000052261 -2.390000052261
0

0101000
+133 0 -102 0 *
Ed
 1e-07 1 1 0
1  56 0 0.199999999999999 1
0

0101000
+102 0 -117 0 *
Wi

0101100
-116 0 -114 0 +112 0 +110 0 +108 0 +106 0 +104 0 -103 0 -130 0 +101 0 
+100 0 *
Fa
0  1e-07 9 0

0101000
+99 0 *
Ve
1e-07
4.1218 -6.715800104523 8.3
0 0

0101101
*
Ve
1e-07
4.1218 -6.715800104523 9.1
0 0

0101101
*
Ed
 1e-07 1 1 0
1  57 0 0.800000000000001 1.6
0

0101000
+97 0 -96 0 *
Ed
 1e-07 1 1 0
1  58 0 2.390000052261 3.590000052261
0

0101000
+97 0 -129 0 *
Ed
 1e-07 1 1 0
1  59 0 0 1.2
0

0101000
+96 0 -127 0 *
Wi

0101100
-95 0 +94 0 +126 0 -93 0 *
Fa
0  1e-07 10 0

0101000
+92 0 *
Ed
 1e-07 1 1 0
1  60 0 0.399999999999999 0.812121597166
0

0101000
+102 0 -140 0 *
Wi

0101100
-132 0 +101 0 +90 0 -137 0 *
Ve
1e-07
7.9418 -6.115800104523 7.5
0 0

0101101
*
Ed
 1e-07 1 1 0
1  61 0 0 6.28318530717959
2  13 12 0 0 6.28318530717959
0

0101100
+88 0 -88 0 *
Wi

0101100
-87 0 *
Fa
0  1e-07 11 0

0101000
+89 0 +86 0 *
Ve
1e-07
7.9418 -6.115800104523 9.1
0 0

0101101
*
Ed
 1e-07 1 1 0
1  62 0 0 6.28318530717959
2  14 12 0 0 6.28318530717959
0

0101100
+84 0 -84 0 *
Ed
 1e-07 1 1 0
1  63 0 0.5 2.1
3  15 16CN 12 0 0.5 2.1
0

0101000
+88 0 -84 0 *
Wi

0101100
+83 0 -82 0 +87 0 +82 0 *
Fa
0  1e-07 12 0

0101000
+81 0 *
Ed
 1e-07 1 1 0
1  64 0 -4.58 -4.18
0

0101000
+117 0 -97 0 *
Ed
 1e-07 1 1 0
1  65 0 0 0.812121597166
0

0101000
+96 0 -142 0 *
Wi

0101100
-90 0 +100 0 +79 0 +95 0 +78 0 -139 0 *
Fa
0  1e-07 13 0

0101000
+77 0 *
Ed
 1e-07 1 1 0
1  66 0 0.600000000000001 7.350000104523
0

0101000
+125 0 -158 0 *
Wi

0101100
-124 0 -93 0 +78 0 +141 0 +147 0 -155 0 -75 0 *
Wi

0101100
+83 0 *
Fa
0  1e-07 14 0

0101000
+74 0 +73 0 *
Ve
1e-07
4.8418 0.0542 7.9
0 0

0101101
*
Ed
 1e-07 1 1 0
1  67 0 0.600000000000001 6.170000104523
0

0101000
+123 0 -71 0 *
Ve
1e-07
4.8418 0.0542 8.7
0 0

0101101
*
Ed
 1e-07 1 1 0
1  68 0 -0.799999999999999 0
0

0101000
+69 0 -71 0 *
Ed
 1e-07 1 1 0
1  69 0 3.085000052261 4.265000052261
0

0101000
+69 0 -160 0 *
Wi

0101100
-75 0 +122 0 +70 0 -68 0 +67 0 +157 0 *
Fa
0  1e-07 15 0

0101000
+66 0 *
Ve
1e-07
-4.5582 0.0542 8.7
0 0

0101101
*
Ed
 1e-07 1 1 0
1  70 0 3.085000052261 4.265000052261
0

0101000
+64 0 -162 0 *
Ed
 1e-07 1 1 0
1  71 0 2 11.4
0

0101000
+64 0 -69 0 *
Wi

0101100
-159 0 -63 0 +62 0 +67 0 *
Fa
0  1e-07 16 0

0101000
+61 0 *
Ve
1e-07
-4.5582 -5.515800104523 9.1
0 0

0101101
*
Ve
1e-07
-4.5582 -5.515800104523 7.9
0 0

0101101
*
Ed
 1e-07 1 1 0
1  72 0 -1.4 -0.200000000000001
0

0101000
+59 0 -58 0 *
Ve
1e-07
-4.5582 0.0542 7.9
0 0

0101101
*
Ed
 1e-07 1 1 0
1  73 0 0.600000000000001 6.170000104523
0

0101000
+58 0 -56 0 *
Ed
 1e-07 1 1 0
1  74 0 -0.799999999999999 0
0

0101000
+64 0 -56 0 *
Ed
 1e-07 1 1 0
1  75 0 0.600000000000001 7.350000104523
0

0101000
+59 0 -164 0 *
Wi

0101100
+57 0 +55 0 -54 0 +63 0 +161 0 -53 0 *
Fa
0  1e-07 17 0

0101000
+52 0 *
Ve
1e-07
-3.8382 -5.515800104523 9.1
0 0

0101101
*
Ed
 1e-07 1 1 0
1  76 0 2 2.72
0

0101000
+59 0 -50 0 *
Ed
 1e-07 1 1 0
1  77 0 0 1.2
0

0101000
+191 0 -50 0 *
Wi

0101100
-49 0 +53 0 -163 0 -169 0 +183 0 +190 0 +48 0 *
Ve
1e-07
-5.4582 -6.115800104523 9.1
0 0

0101101
*
Ed
 1e-07 1 1 0
1  78 0 0 6.28318530717959
2  17 19 0 0 6.28318530717959
0

0101100
+46 0 -46 0 *
Wi

0101100
+45 0 *
Fa
0  1e-07 18 0

0101000
+47 0 +44 0 *
Ve
1e-07
-5.4582 -6.115800104523 7.5
0 0

0101101
*
Ed
 1e-07 1 1 0
1  79 0 0.5 2.1
3  18 19CN 19 0 0.5 2.1
0

0101000
+42 0 -46 0 *
Ed
 1e-07 1 1 0
1  80 0 0 6.28318530717959
2  20 19 0 0 6.28318530717959
0

0101100
+42 0 -42 0 *
Wi

0101100
+45 0 -41 0 +40 0 +41 0 *
Fa
0  1e-07 19 0

0101000
+39 0 *
Ve
1e-07
-3.8382 -5.515800104523 8.3
0 0

0101101
*
Ed
 1e-07 1 1 0
1  81 0 2.390000052261 3.590000052261
0

0101000
+189 0 -37 0 *
Ed
 1e-07 1 1 0
1  82 0 0.800000000000001 1.6
0

0101000
+37 0 -50 0 *
Wi

0101100
-188 0 +36 0 +35 0 -48 0 *
Fa
0  1e-07 20 0

0101000
+34 0 *
Ed
 1e-07 1 1 0
1  83 0 1.907878402834 2.32
0

0101000
+178 0 -202 0 *
Wi

0101100
-32 0 +176 0 +194 0 -199 0 *
Wi

0101100
-40 0 *
Fa
0  1e-07 21 0

0101000
+31 0 +30 0 *
Ed
 1e-07 1 1 0
1  84 0 2.907878402834 3
0

0101000
+180 0 -58 0 *
Ed
 1e-07 1 1 0
1  85 0 -1.56 -1.16
0

0101000
+37 0 -204 0 *
Wi

0101100
-32 0 +177 0 +28 0 -57 0 +49 0 -35 0 +27 0 -201 0 *
Fa
0  1e-07 22 0

0101000
+26 0 *
Ed
 1e-07 1 1 0
1  86 0 1.16 9.92
0

0101000
+208 0 -107 0 *
Ed
 1e-07 1 1 0
1  87 0 0 8.76
0

0101000
+206 0 -105 0 *
Wi

0101100
-205 0 +24 0 +104 0 -23 0 *
Fa
0  1e-07 23 0

0101000
+22 0 *
Ed
 1e-07 1 1 0
1  88 0 2 2.32
0

0101000
+56 0 -210 0 *
Ed
 1e-07 1 1 0
1  89 0 11.08 11.4
0

0101000
+109 0 -71 0 *
Wi

0101100
-20 0 -54 0 +62 0 +68 0 -19 0 +106 0 -24 0 -207 0 *
Fa
0  1e-07 24 0

0101000
+18 0 *
Ed
 1e-07 1 1 0
1  90 0 0 8.76
0

0101000
+212 0 -111 0 *
Wi

0101100
-165 0 -172 0 -179 0 +28 0 +55 0 +20 0 -209 0 +16 0 +108 0 +19 0 
-70 0 +121 0 -143 0 +148 0 *
Fa
0  1e-07 25 0

0101000
+15 0 *
Ed
 1e-07 1 1 0
1  91 0 0 8.76
0

0101000
+214 0 -113 0 *
Wi

0101100
+13 0 +110 0 -16 0 -211 0 *
Fa
0  1e-07 26 0

0101000
+12 0 *
Ed
 1e-07 1 1 0
1  92 0 0 8.76
0

0101000
+216 0 -115 0 *
Wi

0101100
-213 0 +10 0 +112 0 -13 0 *
Fa
0  1e-07 27 0

0101000
+9 0 *
Ed
 1e-07 1 1 0
1  93 0 0 8.76
0

0101000
+219 0 -118 0 *
Wi

0101100
-10 0 +215 0 +7 0 -114 0 *
Fa
0  1e-07 28 0

0101000
+6 0 *
Wi

0101100
-217 0 +7 0 +116 0 +79 0 +94 0 -128 0 +103 0 -23 0 -203 0 -27 0 
-36 0 +187 0 *
Fa
0  1e-07 29 0

0101000
+4 0 *
Sh

0101100
-196 0 -185 0 +174 0 -167 0 +152 0 +145 0 +134 0 +119 0 +98 0 -91 0 
-85 0 -80 0 -76 0 +72 0 -65 0 +60 0 +51 0 +43 0 -38 0 +33 0 
-29 0 +25 0 -21 0 -17 0 -14 0 -11 0 -8 0 -5 0 +3 0 *
So

1100000
+2 0 *

+1 0 